<mxfile host="app.diagrams.net" modified="2024-05-25T20:46:15.457Z" agent="Mozilla/5.0 (Macintosh; Intel Mac OS X 10_15_7) AppleWebKit/537.36 (KHTML, like Gecko) Chrome/124.0.0.0 Safari/537.36" etag="M0w_gnrfdle6iKzPXkxU" version="24.4.8" type="device">
  <diagram name="Страница — 1" id="R6Jbsx1nSo0BSAziR3sn">
    <mxGraphModel dx="1383" dy="787" grid="1" gridSize="10" guides="1" tooltips="1" connect="1" arrows="1" fold="1" page="1" pageScale="1" pageWidth="827" pageHeight="1169" math="0" shadow="0">
      <root>
        <mxCell id="0" />
        <mxCell id="1" parent="0" />
        <mxCell id="Y4AmV512FrsqReYoDG1q-1" value="parse arguments" style="rounded=0;whiteSpace=wrap;html=1;" parent="1" vertex="1">
          <mxGeometry x="330" y="120" width="120" height="60" as="geometry" />
        </mxCell>
        <mxCell id="Y4AmV512FrsqReYoDG1q-2" value="input file" style="rounded=0;whiteSpace=wrap;html=1;" parent="1" vertex="1">
          <mxGeometry x="600" y="280" width="120" height="60" as="geometry" />
        </mxCell>
        <mxCell id="Y4AmV512FrsqReYoDG1q-3" value="writer thread" style="shape=umlLifeline;perimeter=lifelinePerimeter;whiteSpace=wrap;html=1;container=1;dropTarget=0;collapsible=0;recursiveResize=0;outlineConnect=0;portConstraint=eastwest;newEdgeStyle={&quot;curved&quot;:0,&quot;rounded&quot;:0};participant=umlEntity;" parent="1" vertex="1">
          <mxGeometry x="90" y="350" width="160" height="510" as="geometry" />
        </mxCell>
        <mxCell id="Y4AmV512FrsqReYoDG1q-4" value="reader thread" style="shape=umlLifeline;perimeter=lifelinePerimeter;whiteSpace=wrap;html=1;container=1;dropTarget=0;collapsible=0;recursiveResize=0;outlineConnect=0;portConstraint=eastwest;newEdgeStyle={&quot;curved&quot;:0,&quot;rounded&quot;:0};participant=umlEntity;" parent="1" vertex="1">
          <mxGeometry x="580" y="350" width="160" height="500" as="geometry" />
        </mxCell>
        <mxCell id="Y4AmV512FrsqReYoDG1q-5" value="output file" style="rounded=0;whiteSpace=wrap;html=1;" parent="1" vertex="1">
          <mxGeometry x="110" y="280" width="120" height="60" as="geometry" />
        </mxCell>
        <mxCell id="Y4AmV512FrsqReYoDG1q-6" value="send data (pointer + size_t)" style="endArrow=classic;html=1;rounded=0;" parent="1" edge="1">
          <mxGeometry width="50" height="50" relative="1" as="geometry">
            <mxPoint x="659.75" y="500" as="sourcePoint" />
            <mxPoint x="320.25" y="500" as="targetPoint" />
          </mxGeometry>
        </mxCell>
        <mxCell id="Y4AmV512FrsqReYoDG1q-9" value="send data (pointer + size_t)" style="endArrow=classic;html=1;rounded=0;" parent="1" edge="1">
          <mxGeometry width="50" height="50" relative="1" as="geometry">
            <mxPoint x="659.75" y="700" as="sourcePoint" />
            <mxPoint x="320.25" y="700" as="targetPoint" />
          </mxGeometry>
        </mxCell>
        <mxCell id="Y4AmV512FrsqReYoDG1q-10" value="" style="endArrow=classic;html=1;rounded=0;" parent="1" edge="1">
          <mxGeometry width="50" height="50" relative="1" as="geometry">
            <mxPoint x="169.83333333333326" y="620" as="sourcePoint" />
            <mxPoint x="440" y="620" as="targetPoint" />
          </mxGeometry>
        </mxCell>
        <mxCell id="Y4AmV512FrsqReYoDG1q-11" value="send data back (pointer + size_t)" style="edgeLabel;html=1;align=center;verticalAlign=middle;resizable=0;points=[];" parent="Y4AmV512FrsqReYoDG1q-10" vertex="1" connectable="0">
          <mxGeometry x="-0.0586" y="1" relative="1" as="geometry">
            <mxPoint x="1" as="offset" />
          </mxGeometry>
        </mxCell>
        <mxCell id="Y4AmV512FrsqReYoDG1q-12" value="start processing data" style="rounded=0;whiteSpace=wrap;html=1;" parent="1" vertex="1">
          <mxGeometry x="120" y="450" width="100" height="30" as="geometry" />
        </mxCell>
        <mxCell id="Y4AmV512FrsqReYoDG1q-13" value="DataQueue&amp;nbsp;&lt;br&gt;FromReaderToWriter" style="rounded=0;whiteSpace=wrap;html=1;" parent="1" vertex="1">
          <mxGeometry x="294" y="340" width="120" height="40" as="geometry" />
        </mxCell>
        <mxCell id="Y4AmV512FrsqReYoDG1q-14" value="DataQueue&amp;nbsp;&lt;br&gt;FromWriterToReader" style="rounded=0;whiteSpace=wrap;html=1;" parent="1" vertex="1">
          <mxGeometry x="430" y="340" width="120" height="40" as="geometry" />
        </mxCell>
        <mxCell id="Y4AmV512FrsqReYoDG1q-16" value="ptr+size" style="rounded=0;whiteSpace=wrap;html=1;" parent="1" vertex="1">
          <mxGeometry x="430" y="385" width="60" height="20" as="geometry" />
        </mxCell>
        <mxCell id="Y4AmV512FrsqReYoDG1q-17" value="ptr+size" style="rounded=0;whiteSpace=wrap;html=1;" parent="1" vertex="1">
          <mxGeometry x="490" y="385" width="60" height="20" as="geometry" />
        </mxCell>
        <mxCell id="z2xI7N1zQIP_xfn3pRQg-1" value="start reading" style="rounded=0;whiteSpace=wrap;html=1;" vertex="1" parent="1">
          <mxGeometry x="600" y="405" width="120" height="30" as="geometry" />
        </mxCell>
        <mxCell id="z2xI7N1zQIP_xfn3pRQg-2" value="send data(nullptr + 0)" style="endArrow=classic;html=1;rounded=0;" edge="1" parent="1">
          <mxGeometry width="50" height="50" relative="1" as="geometry">
            <mxPoint x="659.75" y="760" as="sourcePoint" />
            <mxPoint x="320.25" y="760" as="targetPoint" />
          </mxGeometry>
        </mxCell>
        <mxCell id="z2xI7N1zQIP_xfn3pRQg-3" value="end reading" style="rounded=0;whiteSpace=wrap;html=1;" vertex="1" parent="1">
          <mxGeometry x="600" y="830" width="120" height="30" as="geometry" />
        </mxCell>
        <mxCell id="z2xI7N1zQIP_xfn3pRQg-4" value="end writing" style="rounded=0;whiteSpace=wrap;html=1;" vertex="1" parent="1">
          <mxGeometry x="110" y="830" width="120" height="30" as="geometry" />
        </mxCell>
        <mxCell id="z2xI7N1zQIP_xfn3pRQg-7" value="ptr+size" style="rounded=0;whiteSpace=wrap;html=1;" vertex="1" parent="1">
          <mxGeometry x="630" y="450" width="60" height="20" as="geometry" />
        </mxCell>
        <mxCell id="z2xI7N1zQIP_xfn3pRQg-8" value="" style="endArrow=classic;html=1;rounded=0;exitX=0.5;exitY=1;exitDx=0;exitDy=0;entryX=0;entryY=0.5;entryDx=0;entryDy=0;" edge="1" parent="1" source="Y4AmV512FrsqReYoDG1q-17" target="z2xI7N1zQIP_xfn3pRQg-7">
          <mxGeometry width="50" height="50" relative="1" as="geometry">
            <mxPoint x="430" y="460" as="sourcePoint" />
            <mxPoint x="480" y="410" as="targetPoint" />
          </mxGeometry>
        </mxCell>
        <mxCell id="z2xI7N1zQIP_xfn3pRQg-9" value="ptr+size" style="rounded=0;whiteSpace=wrap;html=1;" vertex="1" parent="1">
          <mxGeometry x="430" y="450" width="60" height="20" as="geometry" />
        </mxCell>
        <mxCell id="z2xI7N1zQIP_xfn3pRQg-10" value="" style="rounded=0;whiteSpace=wrap;html=1;dashed=1;dashPattern=12 12;" vertex="1" parent="1">
          <mxGeometry x="490" y="450" width="60" height="20" as="geometry" />
        </mxCell>
        <mxCell id="z2xI7N1zQIP_xfn3pRQg-11" value="" style="rounded=0;whiteSpace=wrap;html=1;dashed=1;dashPattern=12 12;" vertex="1" parent="1">
          <mxGeometry x="294" y="385" width="60" height="20" as="geometry" />
        </mxCell>
        <mxCell id="z2xI7N1zQIP_xfn3pRQg-12" value="" style="rounded=0;whiteSpace=wrap;html=1;dashed=1;dashPattern=12 12;" vertex="1" parent="1">
          <mxGeometry x="354" y="385" width="60" height="20" as="geometry" />
        </mxCell>
        <mxCell id="z2xI7N1zQIP_xfn3pRQg-13" value="" style="rounded=0;whiteSpace=wrap;html=1;dashed=1;dashPattern=12 12;" vertex="1" parent="1">
          <mxGeometry x="354" y="520" width="60" height="20" as="geometry" />
        </mxCell>
        <mxCell id="z2xI7N1zQIP_xfn3pRQg-14" value="&lt;meta charset=&quot;utf-8&quot;&gt;&lt;span style=&quot;color: rgb(0, 0, 0); font-family: Helvetica; font-size: 12px; font-style: normal; font-variant-ligatures: normal; font-variant-caps: normal; font-weight: 400; letter-spacing: normal; orphans: 2; text-align: center; text-indent: 0px; text-transform: none; widows: 2; word-spacing: 0px; -webkit-text-stroke-width: 0px; white-space: normal; background-color: rgb(251, 251, 251); text-decoration-thickness: initial; text-decoration-style: initial; text-decoration-color: initial; display: inline !important; float: none;&quot;&gt;ptr+size&lt;/span&gt;" style="rounded=0;whiteSpace=wrap;html=1;" vertex="1" parent="1">
          <mxGeometry x="294" y="520" width="60" height="20" as="geometry" />
        </mxCell>
        <mxCell id="z2xI7N1zQIP_xfn3pRQg-15" value="ptr+size" style="rounded=0;whiteSpace=wrap;html=1;" vertex="1" parent="1">
          <mxGeometry x="140" y="575" width="60" height="20" as="geometry" />
        </mxCell>
        <mxCell id="z2xI7N1zQIP_xfn3pRQg-16" value="" style="endArrow=classic;html=1;rounded=0;exitX=0;exitY=1;exitDx=0;exitDy=0;entryX=1;entryY=0.5;entryDx=0;entryDy=0;" edge="1" parent="1" source="z2xI7N1zQIP_xfn3pRQg-14" target="z2xI7N1zQIP_xfn3pRQg-15">
          <mxGeometry width="50" height="50" relative="1" as="geometry">
            <mxPoint x="430" y="640" as="sourcePoint" />
            <mxPoint x="480" y="590" as="targetPoint" />
          </mxGeometry>
        </mxCell>
        <mxCell id="z2xI7N1zQIP_xfn3pRQg-17" value="" style="rounded=0;whiteSpace=wrap;html=1;dashed=1;dashPattern=12 12;" vertex="1" parent="1">
          <mxGeometry x="294" y="575" width="60" height="20" as="geometry" />
        </mxCell>
        <mxCell id="z2xI7N1zQIP_xfn3pRQg-18" value="" style="rounded=0;whiteSpace=wrap;html=1;dashed=1;dashPattern=12 12;" vertex="1" parent="1">
          <mxGeometry x="354" y="575" width="60" height="20" as="geometry" />
        </mxCell>
        <mxCell id="z2xI7N1zQIP_xfn3pRQg-19" value="ptr+size" style="rounded=0;whiteSpace=wrap;html=1;" vertex="1" parent="1">
          <mxGeometry x="430" y="520" width="60" height="20" as="geometry" />
        </mxCell>
        <mxCell id="z2xI7N1zQIP_xfn3pRQg-20" value="" style="rounded=0;whiteSpace=wrap;html=1;dashed=1;dashPattern=12 12;" vertex="1" parent="1">
          <mxGeometry x="490" y="520" width="60" height="20" as="geometry" />
        </mxCell>
        <mxCell id="z2xI7N1zQIP_xfn3pRQg-21" value="ptr+size" style="rounded=0;whiteSpace=wrap;html=1;" vertex="1" parent="1">
          <mxGeometry x="630" y="575" width="60" height="20" as="geometry" />
        </mxCell>
        <mxCell id="z2xI7N1zQIP_xfn3pRQg-22" value="" style="endArrow=classic;html=1;rounded=0;exitX=0.428;exitY=1.117;exitDx=0;exitDy=0;exitPerimeter=0;entryX=0;entryY=0.5;entryDx=0;entryDy=0;" edge="1" parent="1" source="z2xI7N1zQIP_xfn3pRQg-19" target="z2xI7N1zQIP_xfn3pRQg-21">
          <mxGeometry width="50" height="50" relative="1" as="geometry">
            <mxPoint x="430" y="640" as="sourcePoint" />
            <mxPoint x="480" y="590" as="targetPoint" />
          </mxGeometry>
        </mxCell>
        <mxCell id="z2xI7N1zQIP_xfn3pRQg-23" value="" style="rounded=0;whiteSpace=wrap;html=1;dashed=1;dashPattern=12 12;" vertex="1" parent="1">
          <mxGeometry x="430" y="575" width="60" height="20" as="geometry" />
        </mxCell>
        <mxCell id="z2xI7N1zQIP_xfn3pRQg-24" value="" style="rounded=0;whiteSpace=wrap;html=1;dashed=1;dashPattern=12 12;" vertex="1" parent="1">
          <mxGeometry x="490" y="575" width="60" height="20" as="geometry" />
        </mxCell>
        <mxCell id="z2xI7N1zQIP_xfn3pRQg-25" value="ptr+size" style="rounded=0;whiteSpace=wrap;html=1;" vertex="1" parent="1">
          <mxGeometry x="430" y="640" width="60" height="20" as="geometry" />
        </mxCell>
        <mxCell id="z2xI7N1zQIP_xfn3pRQg-26" value="" style="rounded=0;whiteSpace=wrap;html=1;dashed=1;dashPattern=12 12;" vertex="1" parent="1">
          <mxGeometry x="490" y="640" width="60" height="20" as="geometry" />
        </mxCell>
        <mxCell id="z2xI7N1zQIP_xfn3pRQg-27" value="" style="endArrow=classic;html=1;rounded=0;entryX=0.428;entryY=0.05;entryDx=0;entryDy=0;entryPerimeter=0;" edge="1" parent="1" target="z2xI7N1zQIP_xfn3pRQg-14">
          <mxGeometry width="50" height="50" relative="1" as="geometry">
            <mxPoint x="320" y="500" as="sourcePoint" />
            <mxPoint x="480" y="590" as="targetPoint" />
          </mxGeometry>
        </mxCell>
        <mxCell id="z2xI7N1zQIP_xfn3pRQg-28" value="" style="endArrow=classic;html=1;rounded=0;entryX=0.139;entryY=0.05;entryDx=0;entryDy=0;entryPerimeter=0;" edge="1" parent="1" target="z2xI7N1zQIP_xfn3pRQg-25">
          <mxGeometry width="50" height="50" relative="1" as="geometry">
            <mxPoint x="440" y="620" as="sourcePoint" />
            <mxPoint x="480" y="590" as="targetPoint" />
          </mxGeometry>
        </mxCell>
      </root>
    </mxGraphModel>
  </diagram>
</mxfile>
